<?xml version="1.0" standalone="no"?>
<!DOCTYPE svg PUBLIC "-//W3C//DTD SVG 20010904//EN"
 "http://www.w3.org/TR/2001/REC-SVG-20010904/DTD/svg10.dtd">
<svg version="1.0" xmlns="http://www.w3.org/2000/svg"
 width="360.000000pt" height="360.000000pt" viewBox="0 0 360.000000 360.000000"
 preserveAspectRatio="xMidYMid meet">

<g transform="translate(0.000000,360.000000) scale(0.100000,-0.100000)"
fill="#000000" stroke="none">
<path d="M1585 3205 c-324 -59 -618 -251 -799 -522 -84 -126 -146 -266 -171
-381 l-7 -34 29 15 c23 12 33 30 51 86 112 348 412 642 767 752 162 50 378 63
548 34 422 -74 788 -394 913 -798 14 -44 25 -62 46 -73 15 -8 28 -10 28 -5 0
21 -54 179 -81 240 -16 36 -59 109 -95 164 -182 273 -477 466 -798 522 -107
18 -331 19 -431 0z"/>
<path d="M1657 3083 l-37 -4 6 -57 c4 -31 8 -59 10 -61 1 -2 30 0 64 4 73 9
79 32 7 27 -50 -4 -66 13 -22 24 35 9 31 24 -5 24 -16 0 -30 5 -30 10 0 6 12
10 28 10 39 0 73 11 66 21 -5 9 -15 9 -87 2z"/>
<path d="M1825 3035 c-4 -31 -6 -57 -4 -59 2 -2 29 -5 59 -7 66 -5 84 14 21
21 -52 6 -69 30 -22 30 17 0 31 5 31 10 0 6 -11 10 -25 10 -15 0 -25 6 -25 14
0 10 11 12 45 8 27 -3 45 -1 45 6 0 12 -34 22 -82 22 l-37 0 -6 -55z"/>
<path d="M1485 3045 c-35 -11 -40 -16 -38 -41 3 -41 23 -84 39 -84 10 0 13 7
8 24 -4 18 -1 25 15 29 12 3 21 11 21 17 0 8 -9 10 -24 6 -16 -4 -26 -1 -29 8
-4 10 8 17 39 25 24 6 44 16 44 21 0 13 -25 11 -75 -5z"/>
<path d="M2120 3030 c0 -6 11 -15 25 -20 24 -9 24 -10 10 -44 -8 -20 -15 -43
-15 -52 0 -28 22 -10 38 31 8 22 16 41 17 43 1 1 14 -2 29 -7 19 -8 26 -7 26
2 0 6 -25 22 -55 35 -62 25 -75 27 -75 12z"/>
<path d="M1315 2978 c-22 -11 -42 -22 -44 -24 -9 -8 43 -104 57 -104 10 0 12
7 8 25 -5 18 -1 27 15 36 14 7 18 14 11 21 -7 7 -17 6 -31 -1 -17 -10 -21 -9
-21 4 0 8 16 23 35 32 35 17 46 33 23 33 -7 -1 -31 -10 -53 -22z"/>
<path d="M2286 2916 c-29 -50 -32 -66 -13 -66 15 0 57 69 57 94 0 28 -17 17
-44 -28z"/>
<path d="M1635 2889 c-233 -44 -455 -191 -588 -392 -61 -92 -104 -194 -91
-215 20 -31 31 -22 64 54 48 109 102 189 184 269 334 330 865 328 1197 -4 77
-77 133 -159 179 -265 33 -76 44 -85 64 -54 13 21 -28 119 -87 209 -136 208
-358 355 -601 398 -71 13 -251 12 -321 0z"/>
<path d="M2383 2856 c-36 -47 -39 -56 -20 -56 7 0 20 12 29 28 l17 27 1 -42
c0 -46 8 -51 55 -33 l26 10 -22 -31 c-14 -19 -18 -34 -12 -40 6 -6 23 7 47 37
41 53 37 69 -14 54 -49 -14 -49 -15 -52 37 -2 25 -7 48 -13 49 -5 2 -25 -16
-42 -40z"/>
<path d="M1123 2857 c-23 -17 -42 -38 -43 -45 0 -19 50 -82 65 -82 16 0 105
68 105 81 0 18 -54 79 -70 79 -8 0 -34 -15 -57 -33z m69 -14 c25 -23 23 -38
-11 -62 l-28 -20 -24 25 -23 25 29 24 c36 29 34 29 57 8z"/>
<path d="M963 2701 c-18 -22 -33 -44 -33 -49 0 -12 67 -72 80 -72 9 0 80 80
80 91 0 3 -7 12 -15 19 -18 15 -37 4 -31 -18 3 -10 -4 -28 -15 -41 l-20 -25
-27 27 -26 26 23 25 c13 14 29 22 38 19 11 -4 14 0 11 13 -6 32 -31 26 -65
-15z"/>
<path d="M2557 2697 c-20 -18 -37 -36 -37 -42 1 -14 68 -85 80 -85 15 0 12 8
-16 46 -30 38 -25 57 6 29 27 -24 37 -12 16 20 -25 37 4 33 32 -5 22 -29 42
-39 42 -22 0 14 -64 92 -75 92 -5 -1 -27 -15 -48 -33z"/>
<path d="M1890 2699 c0 -33 -38 -105 -91 -171 -59 -75 -79 -122 -79 -194 l0
-61 -107 -6 c-172 -10 -259 -34 -238 -66 10 -17 72 -30 230 -47 128 -14 170
-14 295 -4 80 7 146 13 148 15 2 2 -61 3 -140 4 -79 0 -179 5 -223 10 -44 6
-106 13 -138 17 -32 4 -60 10 -62 14 -7 12 141 30 228 29 64 -1 77 -4 77 -18
1 -14 3 -13 15 3 13 17 25 19 132 14 125 -6 126 -3 3 11 l-75 8 70 3 70 3 -60
6 c-57 6 -59 7 -35 19 38 20 62 60 67 111 5 46 5 46 -12 23 -10 -13 -42 -39
-71 -58 -30 -19 -64 -48 -76 -64 -22 -30 -58 -41 -58 -17 0 18 26 54 90 123
83 89 101 182 56 284 -14 33 -15 33 -16 9z m-9 -192 c-12 -23 -39 -62 -61 -87
-22 -25 -52 -67 -65 -94 l-25 -50 0 40 c0 65 17 106 84 203 36 51 69 107 73
125 7 27 8 22 11 -32 2 -48 -2 -74 -17 -105z m64 -146 c-10 -17 -127 -92 -118
-76 9 15 116 94 122 89 1 -1 0 -8 -4 -13z"/>
<path d="M800 2431 c-7 -15 -6 -24 6 -36 9 -9 21 -14 27 -12 18 6 31 33 24 51
-9 22 -44 20 -57 -3z"/>
<path d="M2744 2436 c-10 -25 0 -51 20 -54 27 -6 48 25 35 49 -12 22 -47 25
-55 5z"/>
<path d="M684 2254 c-57 -21 -120 -77 -134 -120 -69 -208 327 -292 439 -93 41
73 16 148 -67 196 -56 33 -173 42 -238 17z m107 -145 c48 -21 60 -21 135 -3
l29 7 -34 -37 c-49 -50 -86 -55 -163 -21 -55 25 -64 26 -100 15 -22 -6 -42 -9
-45 -6 -9 9 20 38 52 52 42 19 69 17 126 -7z"/>
<path d="M2719 2256 c-113 -40 -157 -129 -107 -217 59 -106 231 -144 357 -80
179 92 67 312 -158 311 -31 -1 -72 -7 -92 -14z m214 -139 c34 -15 64 -44 54
-53 -3 -3 -23 0 -45 6 -36 11 -45 10 -100 -15 -74 -33 -114 -29 -160 17 -18
17 -31 32 -29 34 2 2 28 -1 58 -7 48 -10 59 -9 99 10 53 24 79 26 123 8z"/>
<path d="M2048 2253 c6 -2 18 -2 25 0 6 3 1 5 -13 5 -14 0 -19 -2 -12 -5z"/>
<path d="M2068 2223 c7 -3 16 -2 19 1 4 3 -2 6 -13 5 -11 0 -14 -3 -6 -6z"/>
<path d="M2172 2061 c-32 -252 -128 -453 -241 -504 -37 -17 -66 -21 -151 -21
-132 0 -167 12 -225 76 -84 93 -150 269 -174 466 -10 75 -10 74 -6 -33 7 -162
39 -283 105 -396 28 -46 30 -55 20 -80 -7 -15 -9 -33 -5 -38 17 -28 -125 10
-197 52 -124 73 -125 153 -4 235 54 36 54 42 -2 12 -71 -37 -112 -87 -112
-135 0 -68 104 -182 214 -235 118 -56 172 -65 386 -65 175 0 203 3 270 24 147
45 249 121 298 221 18 38 20 51 11 83 -14 51 -19 46 -12 -12 5 -46 4 -50 -34
-88 -40 -40 -134 -85 -206 -98 -33 -6 -37 -5 -37 13 0 12 -5 32 -11 45 -9 20
-6 31 20 72 17 27 31 55 31 62 0 8 15 28 33 46 28 28 39 32 90 33 99 3 175 74
185 174 6 61 -23 129 -69 160 l-34 23 40 -41 c36 -38 39 -48 43 -104 2 -48 -1
-71 -16 -98 -34 -63 -121 -95 -201 -73 -20 5 -22 10 -17 42 12 67 27 240 24
263 -2 13 -9 -24 -16 -81z m-609 -515 c18 -13 52 -30 77 -36 25 -7 39 -15 33
-17 -13 -5 -154 15 -161 22 -6 5 7 55 14 55 3 0 20 -11 37 -24z m485 12 c7 -7
12 -19 12 -29 0 -12 -16 -19 -69 -28 -39 -6 -85 -11 -103 -10 -32 1 -31 1 12
13 56 16 110 43 110 56 0 14 24 12 38 -2z m213 -12 c-32 -34 -118 -73 -218
-98 -73 -18 -117 -22 -263 -23 -196 0 -284 14 -402 68 -83 36 -90 54 -9 21
125 -51 181 -59 406 -58 237 0 313 14 435 78 80 42 78 41 51 12z"/>
<path d="M1588 2123 c7 -3 16 -2 19 1 4 3 -2 6 -13 5 -11 0 -14 -3 -6 -6z"/>
<path d="M1780 2120 c-108 -3 -153 -8 -131 -12 54 -12 250 -8 321 6 75 16 86
15 -190 6z"/>
<path d="M2200 2091 c0 -6 5 -13 12 -17 7 -4 8 -3 4 4 -5 8 3 12 24 12 46 0
90 -47 90 -95 0 -29 -8 -45 -35 -72 -32 -32 -39 -35 -78 -30 -38 5 -40 4 -23
-9 27 -20 65 -17 104 6 36 22 52 54 52 107 0 52 -53 103 -109 103 -23 0 -41
-4 -41 -9z"/>
<path d="M2119 2060 c-10 -11 -46 -23 -90 -31 -81 -14 -384 -19 -464 -6 l-50
7 2 -32 c8 -131 73 -338 113 -363 12 -7 13 -25 2 -25 -15 0 -83 74 -110 119
-14 24 -36 71 -49 105 -13 33 -21 48 -18 31 11 -54 75 -179 113 -218 23 -24
55 -43 86 -52 64 -19 179 -19 243 0 115 34 204 198 238 438 7 52 7 53 -16 27z"/>
<path d="M1432 1960 c0 -14 2 -19 5 -12 2 6 2 18 0 25 -3 6 -5 1 -5 -13z"/>
<path d="M585 1868 c57 -528 461 -965 990 -1069 41 -8 133 -14 225 -14 170 0
245 11 385 57 292 96 553 317 693 586 75 143 121 293 137 440 l7 62 -26 -11
c-19 -9 -27 -22 -31 -48 -45 -296 -149 -509 -345 -702 -159 -157 -334 -253
-565 -311 -130 -32 -380 -32 -510 0 -231 58 -406 154 -565 311 -196 193 -300
406 -345 702 -4 26 -12 39 -31 48 l-26 11 7 -62z"/>
<path d="M922 1917 c-13 -6 -21 -16 -18 -26 3 -9 8 -34 11 -56 43 -260 233
-513 476 -636 43 -21 118 -51 166 -66 79 -24 104 -26 243 -26 140 0 164 2 244
27 180 54 335 155 446 289 101 123 165 258 194 408 13 67 12 70 -8 85 -24 16
-20 25 -50 -110 -63 -278 -275 -513 -548 -607 -419 -144 -881 58 -1055 462
-18 42 -40 107 -49 145 -29 128 -26 123 -52 111z"/>
<path d="M1441 1914 c0 -11 3 -14 6 -6 3 7 2 16 -1 19 -3 4 -6 -2 -5 -13z"/>
<path d="M2755 1786 c-25 -18 -15 -50 16 -54 28 -3 43 16 33 42 -8 21 -30 26
-49 12z"/>
<path d="M801 1776 c-9 -11 -10 -20 -1 -35 19 -36 64 -20 58 20 -4 28 -39 37
-57 15z"/>
<path d="M2621 1491 c-17 -28 -31 -53 -31 -55 0 -2 22 -18 49 -35 l50 -30 32
50 c22 34 29 53 22 60 -8 8 -18 -2 -34 -30 -12 -23 -26 -41 -29 -41 -17 0 -19
15 -5 36 9 14 11 25 5 29 -5 3 -15 -3 -22 -15 -7 -11 -16 -20 -20 -20 -14 0
-8 21 13 52 14 19 18 33 12 39 -7 7 -21 -7 -42 -40z"/>
<path d="M897 1495 c-20 -14 -37 -30 -37 -36 0 -14 59 -99 68 -99 31 1 39 40
8 40 -8 0 -21 12 -31 26 -18 28 -18 29 26 54 20 12 64 -41 47 -58 -6 -6 -6
-12 1 -16 14 -9 31 1 31 20 0 20 -50 94 -64 94 -6 0 -28 -11 -49 -25z"/>
<path d="M2515 1301 l7 -49 -44 8 c-64 12 -70 -3 -21 -52 43 -43 74 -47 35 -5
-12 13 -22 25 -22 28 0 2 17 3 38 1 l38 -4 -4 39 -4 38 24 -22 c24 -23 48 -30
48 -15 0 13 -75 82 -89 82 -10 0 -11 -12 -6 -49z"/>
<path d="M1042 1307 c-18 -18 -32 -37 -32 -43 0 -13 83 -94 96 -94 13 0 74 63
74 77 0 12 -85 93 -98 93 -4 0 -22 -15 -40 -33z m107 -55 c3 -1 -7 -15 -22
-30 l-27 -27 -31 31 -30 31 23 26 23 26 30 -27 c16 -15 32 -28 34 -30z"/>
<path d="M1238 1141 c-16 -27 -28 -52 -28 -55 0 -13 31 -5 36 8 5 12 11 13 30
4 34 -16 44 0 14 22 -37 28 -15 37 29 12 45 -26 67 -12 24 14 -56 34 -72 44
-75 44 -2 0 -15 -22 -30 -49z"/>
<path d="M2320 1179 c0 -15 53 -99 62 -99 20 0 16 25 -12 65 -30 44 -50 57
-50 34z"/>
<path d="M2190 1116 c-30 -13 -56 -29 -58 -35 -4 -13 13 -14 37 -2 15 8 21 2
40 -36 16 -34 25 -43 33 -35 9 9 7 21 -5 47 -22 45 -21 52 3 58 11 3 20 10 20
16 0 15 -7 14 -70 -13z"/>
<path d="M1417 1047 c-21 -65 -21 -67 -3 -67 7 0 16 9 19 20 4 17 11 19 31 14
31 -7 36 11 6 21 -11 3 -20 13 -20 21 0 17 -2 17 50 -1 51 -18 53 -18 48 -4
-3 10 -91 49 -109 49 -3 0 -13 -24 -22 -53z"/>
<path d="M1613 989 l-10 -59 31 -4 c77 -12 96 -12 96 0 0 6 -20 15 -45 18 -51
8 -61 26 -15 26 36 0 40 15 5 24 -43 11 -28 26 20 19 30 -4 45 -2 45 5 0 12
-17 17 -81 26 l-37 4 -9 -59z"/>
<path d="M1852 1033 c-21 -4 -22 -8 -16 -61 4 -31 7 -58 8 -59 1 0 27 2 59 5
66 8 74 29 10 24 -34 -3 -43 0 -43 12 0 10 9 16 25 16 14 0 25 5 25 10 0 6
-13 10 -30 10 -49 0 -34 19 20 26 28 4 50 10 50 15 0 9 -65 10 -108 2z"/>
</g>
</svg>
